<?xml version="1.0" encoding="UTF-8"?>
<svg id="_レイヤー_2" data-name="レイヤー 2" xmlns="http://www.w3.org/2000/svg" xmlns:xlink="http://www.w3.org/1999/xlink" viewBox="0 0 1536 864">
  <defs>
    <style>
      .cls-1 {
        filter: url(#drop-shadow-1);
      }

      .cls-2 {
        fill: #fff;
        stroke-width: 0px;
      }
    </style>
    <filter id="drop-shadow-1" filterUnits="userSpaceOnUse">
      <feOffset dx="3" dy="3"/>
      <feGaussianBlur result="blur" stdDeviation="7"/>
      <feFlood flood-color="#000" flood-opacity=".8"/>
      <feComposite in2="blur" operator="in"/>
      <feComposite in="SourceGraphic"/>
    </filter>
  </defs>
  <g class="cls-1">
    <path class="cls-2" d="m464.08,482.4c-.75.59-1.33,1.23-1.73,1.93-.31.5-.53.76-.66.76-.1,0-.33-.13-.71-.39-5.06-3.5-9-7.55-11.82-12.16-2.38-3.87-4.27-8.65-5.69-14.33h-.83c-1.64,1.29-3.06,2.32-4.25,3.1,4.79,4.95,7.18,10.81,7.18,17.58,0,3.66-.54,6.12-1.61,7.37-.98,1.16-2.69,1.73-5.13,1.73-.99,0-1.96-.05-2.91-.15-.47-.03-.75-.1-.83-.2-.08-.08-.17-.33-.27-.76-.2-.83-.5-1.55-.9-2.15,1.64.23,3.36.34,5.15.34,1.24,0,2.12-.4,2.64-1.2.63-.98.95-2.68.95-5.1,0-1.38-.11-2.68-.34-3.88-5.21,4.35-11.96,7.94-20.24,10.79-.39.16-.64.24-.76.24-.2,0-.43-.25-.71-.76-.34-.55-.85-1.12-1.54-1.68,5.11-1.42,9.48-3.08,13.11-4.98,3.37-1.74,6.53-3.9,9.5-6.47-.37-1.22-.91-2.52-1.61-3.91-2.78,1.92-5.49,3.5-8.13,4.74-2.26,1.07-5.04,2.17-8.33,3.27-.44.16-.7.24-.78.24-.2,0-.43-.24-.71-.71-.39-.67-.87-1.2-1.44-1.59,4.05-1.07,7.54-2.29,10.47-3.64,2.51-1.16,5.06-2.63,7.67-4.42-.9-1.27-1.81-2.4-2.76-3.39-3.03,1.69-6.69,3.22-10.99,4.59-.37.13-.62.2-.73.2-.2,0-.42-.21-.68-.63-.39-.63-.89-1.19-1.49-1.66,6.85-1.73,12.34-4.04,16.46-6.93h-4.47l-6.88.1c-.28,0-.42-.15-.42-.46v-1.86c0-.29.14-.44.42-.44l6.88.1h14.5l6.91-.1c.26,0,.39.15.39.44v1.86c0,.31-.13.46-.39.46l-6.91-.1h-2.34c.88,3.78,2.01,7.02,3.39,9.74,2.05-1.64,3.91-3.46,5.57-5.44.52-.6,1.03-1.35,1.54-2.25,1.12.73,1.94,1.33,2.47,1.78.26.23.39.45.39.66s-.19.43-.56.66c-.39.2-1.16.86-2.29,2-1.74,1.74-3.65,3.4-5.74,4.98,2.91,4.72,7.24,8.74,12.99,12.06Zm-2.29-24.76c0,.24-.13.37-.39.37h-2.32c-.26,0-.39-.12-.39-.37v-6.98h-34.5v6.98c0,.24-.13.37-.39.37h-2.32c-.26,0-.39-.12-.39-.37l.1-5.18v-1.56l-.1-2.61c0-.26.13-.39.39-.39l6.91.1h11.21v-.61c0-1.95-.12-3.4-.37-4.35,1.33.07,2.44.15,3.32.24.39.07.59.2.59.42,0,.1-.1.42-.29.95-.16.38-.24,1.27-.24,2.69v.66h11.89l6.91-.1c.26,0,.39.13.39.39l-.1,2.27v1.9l.1,5.18Z"/>
    <path class="cls-2" d="m479.34,446.85c1.48.29,2.67.72,3.56,1.29.34.23.51.48.51.76,0,.16-.07.36-.22.59-.29.5-.56,1.34-.81,2.51-1.6,7.67-2.39,13.97-2.39,18.92,0,3.99.11,6.92.34,8.79.46-1.17,1.63-3.89,3.52-8.15.23.63.6,1.32,1.12,2.05.15.21.22.4.22.56,0,.13-.06.31-.17.54-1.79,4.05-2.78,6.68-2.98,7.89-.07.63-.1,1.14-.1,1.51,0,.28.02.52.05.73.02.1.02.18.02.24,0,.16-.1.3-.29.42-.62.26-1.37.47-2.25.63-.08.03-.15.05-.22.05-.18,0-.32-.15-.42-.44-1.27-3.22-1.9-8.13-1.9-14.72,0-4.38.72-10.78,2.15-19.21.21-1.38.32-2.62.32-3.71,0-.47-.02-.89-.07-1.25Zm23.05,26.9c-.23-4.85-.34-9.49-.34-13.92-2.36.13-4.46.2-6.3.2-1.66,0-3.28-.05-4.86-.15-.33,0-.5-.15-.54-.44-.13-.93-.2-1.81-.2-2.66,1.89.13,3.82.2,5.81.2s4.01-.07,5.98-.2l.05-5.74c0-1.55-.16-3.03-.49-4.44,1.59.15,2.87.38,3.83.68.37.16.56.37.56.61,0,.2-.07.43-.2.71-.21.36-.35,1.16-.42,2.39-.07,1.16-.1,3-.1,5.54,2.54-.24,5.17-.62,7.89-1.12.11-.03.2-.05.24-.05.15,0,.24.13.27.39.13.73.2,1.39.2,1.98,0,.34-.11.54-.34.61-2.02.47-4.77.87-8.25,1.2.05,5.52.2,10.55.46,15.09,3.32,1.4,6.25,3.12,8.79,5.18.13.1.2.2.2.29,0,.07-.03.18-.1.34-.36.81-.81,1.55-1.34,2.2-.1.15-.2.22-.32.22-.08,0-.18-.06-.29-.17-2.28-1.92-4.61-3.45-6.98-4.59-.21,4.49-3,6.74-8.37,6.74-2.54,0-4.51-.56-5.91-1.68-1.25-.99-1.88-2.33-1.88-4,0-1.94.85-3.46,2.54-4.57,1.42-.93,3.13-1.39,5.15-1.39,1.82,0,3.57.19,5.25.56Zm0,3.03c-1.95-.55-3.77-.83-5.44-.83-1.51,0-2.69.31-3.52.93-.75.57-1.12,1.33-1.12,2.27,0,1.01.48,1.77,1.44,2.27.85.44,1.96.66,3.34.66,3.53,0,5.3-1.45,5.3-4.35v-.95Z"/>
    <path class="cls-2" d="m569.5,484.4c-.72.55-1.29,1.23-1.73,2.03-.29.47-.51.71-.66.71-.18,0-.43-.11-.76-.34-10.22-6.53-16.42-15.71-18.6-27.54-2.05,12.3-8.4,21.47-19.04,27.49-.41.23-.66.34-.76.34-.11,0-.34-.25-.68-.76-.52-.7-1.14-1.29-1.86-1.78,7-3.37,12.26-8.43,15.8-15.19,2.96-5.65,4.39-11.89,4.3-18.73-.05-2.67-.16-4.65-.34-5.93,1.33.05,2.58.18,3.74.39.47.11.71.32.71.61,0,.2-.1.52-.29.98-.29.67-.44,1.6-.44,2.81s-.02,2.04-.07,2.61c1.16,7.7,3.45,14.19,6.88,19.48,3.39,5.24,7.99,9.51,13.82,12.82Z"/>
    <path class="cls-2" d="m622.08,484.94c0,.26-.13.39-.39.39l-6.59-.1h-29.15l-6.62.1c-.26,0-.39-.13-.39-.39v-2.32c0-.26.13-.39.39-.39l6.62.1h12.94v-11.23h-6.15l-7.01.1c-.26,0-.39-.13-.39-.39v-2.27c0-.26.13-.39.39-.39l7.01.1h6.15v-10.33h-11.79c-1.46,3.01-3.18,5.69-5.15,8.03-.26.29-.45.44-.56.44s-.37-.16-.76-.49c-.6-.5-1.2-.85-1.78-1.05,3.68-4.18,6.46-9.26,8.35-15.23.36-1.06.54-2.01.54-2.86,1.25.26,2.27.54,3.05.85.41.13.61.31.61.54,0,.21-.13.45-.39.71-.28.26-.55.79-.81,1.59-1.19,3.06-1.79,4.61-1.81,4.66h10.5v-4.15c0-3.08-.13-5.36-.39-6.86,1.16.05,2.32.14,3.49.27.41.05.61.2.61.44,0,.1-.03.24-.1.42-.08.23-.13.39-.15.49-.21.73-.32,2.45-.32,5.15v4.25h9.25l7.01-.1c.26,0,.39.13.39.39v2.22c0,.26-.13.39-.39.39l-7.01-.1h-9.25v10.33h6.96l6.98-.1c.28,0,.42.13.42.39v2.27c0,.26-.14.39-.42.39l-6.98-.1h-6.96v11.23h13.06l6.59-.1c.26,0,.39.13.39.39v2.32Z"/>
    <path class="cls-2" d="m633.19,476.83c.11,0,.3.1.56.29,3.65,2.31,6.84,5.31,9.59,9.01.16.26.24.46.24.61,0,.21-.11.41-.34.59l-1.81,1.51c-.24.2-.41.29-.49.29-.21,0-.4-.13-.56-.39-2.72-3.92-5.79-7.04-9.2-9.35-.23-.15-.34-.26-.34-.34,0-.13.08-.3.24-.51l1.56-1.39c.2-.21.37-.32.54-.32Z"/>
    <path class="cls-2" d="m700.2,471.29c-.1.54-.15,1.17-.15,1.9.02.24.02.42.02.51,0,.38-.27.72-.81,1.05-3.24,1.81-6.97,3.54-11.18,5.2-.99.38-1.59.64-1.78.81-.28.2-.5.29-.66.29-.21,0-.38-.15-.51-.44-.34-.86-.63-1.82-.88-2.88,1.29-.18,2.82-.59,4.59-1.25l2.15-.81v-12.5h-.81l-4.44.12c-.26,0-.39-.14-.39-.42v-2.1c0-.26.13-.39.39-.39l4.44.1h.81v-10.69h-1.15l-4.86.1c-.23,0-.34-.14-.34-.42v-2.15c0-.26.11-.39.34-.39l4.86.1h5.1l4.81-.1c.26,0,.39.13.39.39v2.15c0,.28-.13.42-.39.42l-4.81-.1h-1v10.69h.56l4.49-.1c.23,0,.34.13.34.39v2.1c0,.28-.11.42-.34.42l-4.49-.12h-.56v11.25c2.07-.89,4.15-1.95,6.25-3.15Zm29.42,14.06c0,.26-.11.39-.34.39l-7.1-.1h-18.31l-7.1.1c-.26,0-.39-.13-.39-.39v-2.22c0-.26.13-.39.39-.39l7.1.1h8.54v-6.49h-3.83l-6.57.1c-.26,0-.39-.14-.39-.42v-2.15c0-.26.13-.39.39-.39l6.57.1h3.83v-5.69h-3.83l-6.57.1c-.29,0-.44-.11-.44-.34l.1-5.52v-10.11l-.1-5.37c0-.28.15-.42.44-.42l6.57.1h11.08l6.57-.1c.26,0,.39.14.39.42l-.1,5.37v10.11l.1,5.52c0,.23-.13.34-.39.34l-6.57-.1h-4.35v5.69h4.66l6.54-.1c.26,0,.39.13.39.39v2.15c0,.28-.13.42-.39.42l-6.54-.1h-4.66v6.49h6.86l7.1-.1c.23,0,.34.13.34.39v2.22Zm-17.21-29.61v-6.81h-7.89v6.81h7.89Zm0,9.55v-7.06h-7.89v7.06h7.89Zm11.21-9.55v-6.81h-8.3v6.81h8.3Zm0,9.55v-7.06h-8.3v7.06h8.3Z"/>
    <path class="cls-2" d="m757.79,462.28c-.42.41-.82.91-1.2,1.51-.24.44-.45.66-.61.66-.15,0-.36-.17-.63-.51-1.99-1.87-3.74-4.3-5.25-7.3.16,8.84.24,13.69.24,14.55,0,.29-.13.44-.39.44h-2.2c-.28,0-.42-.15-.42-.44,0-.13.02-1.74.07-4.83.05-3.3.09-6.34.12-9.11-1.87,3.91-4.53,7.26-7.98,10.06-.29.23-.51.34-.66.34s-.37-.22-.66-.66c-.41-.6-.89-1.1-1.44-1.49,4.49-3.17,7.89-7.05,10.21-11.62h-2.66l-5.64.1c-.28,0-.42-.13-.42-.39v-1.95c0-.26.14-.39.42-.39l5.64.1h3.1v-3.15c0-2.18-.1-3.74-.29-4.66.86.05,1.88.14,3.05.27.36.05.54.18.54.39,0,.11-.07.37-.2.76-.16.42-.24,1.49-.24,3.2v3.2h1.39l5.57-.1c.29,0,.44.13.44.39v1.95c0,.26-.15.39-.44.39l-5.57-.1h-1.25c2.13,3.55,4.58,6.35,7.35,8.4Zm-12.08,13.5c-1.09,3.32-2.71,6.37-4.86,9.16-.11.15-.22.22-.32.22s-.26-.07-.49-.22l-1.39-.85c-.36-.21-.54-.38-.54-.51,0-.06.06-.17.2-.32,2.18-2.6,3.71-5.44,4.59-8.52.08-.23.19-.34.32-.34.1,0,.31.07.63.2l1.25.51c.42.2.63.36.63.49,0,.05,0,.11-.02.2Zm26.07,5.05c-.42,2.65-1.3,4.35-2.64,5.1-.99.55-2.25.92-3.76,1.1-1.17.13-2.94.2-5.3.2-4.18,0-6.76-.29-7.74-.85-.73-.44-1.23-.94-1.49-1.49-.28-.6-.42-1.48-.42-2.64v-5.37c0-1.51-.1-2.79-.29-3.83,1.07.05,2.1.16,3.08.34.44.1.66.25.66.46,0,.05-.08.28-.24.68-.16.46-.24,1.28-.24,2.47v4.3c0,1.33.28,2.17.85,2.51.81.47,2.76.71,5.83.71,3.71,0,6.1-.33,7.15-1,1.06-.65,1.68-2.31,1.85-4.98.72.46,1.38.79,2,1,.5.2.76.44.76.73,0,.1-.03.29-.07.56Zm-6.98-3.34c.13.18.2.31.2.39,0,.11-.15.29-.44.51l-1.22.81c-.31.21-.52.32-.63.32-.1,0-.21-.09-.34-.27-1.6-2.44-3.39-4.52-5.4-6.25-.13-.1-.2-.19-.2-.27,0-.11.15-.26.44-.44l1.2-.81c.16-.11.3-.17.42-.17.1,0,.23.06.39.17,2.08,1.73,3.95,3.73,5.59,6.01Zm13.35-6.86c0,.26-.13.39-.39.39l-5.47-.1h-6.4l-5.42.1c-.29,0-.44-.13-.44-.39l.1-5.88v-12.65l-.1-5.96c0-.26.15-.39.44-.39l5.42.1h6.4l5.47-.1c.26,0,.39.13.39.39l-.1,5.96v12.65l.1,5.88Zm-2.96-17.43v-4.81h-12.26v4.81h12.26Zm0,7.45v-5h-12.26v5h12.26Zm0,7.79v-5.35h-12.26v5.35h12.26Zm6.2,13.96c.05.08.07.15.07.22,0,.13-.18.3-.54.51l-1.44.9c-.36.23-.58.34-.66.34-.1,0-.2-.09-.29-.27-1.64-3.53-3.48-6.47-5.49-8.81-.1-.11-.15-.2-.15-.27,0-.11.16-.26.49-.44l1.29-.73c.23-.15.4-.22.51-.22.13,0,.26.09.39.27,2.13,2.43,4.07,5.26,5.81,8.5Z"/>
    <path class="cls-2" d="m814.38,453.2c-.47,4.49-1.37,8.8-2.69,12.92-1.12,3.56-2.42,6.54-3.91,8.94-2.02,3.43-4.47,5.15-7.35,5.15-2.13,0-3.91-1.12-5.32-3.34-1.32-2.1-1.98-4.77-1.98-8.01,0-2.49.57-4.94,1.71-7.35,1.03-2.15,2.39-4.02,4.1-5.62,3.96-3.69,8.95-5.54,14.99-5.54s10.48,1.68,13.72,5.05c2.75,2.87,4.13,6.55,4.13,11.06s-1.47,8.27-4.42,11.33c-2.72,2.83-6.54,4.87-11.47,6.1-.18.05-.33.07-.44.07-.34,0-.63-.2-.85-.61-.44-.72-1.09-1.33-1.95-1.86,5.35-1.06,9.37-3.04,12.04-5.96,2.38-2.6,3.56-5.83,3.56-9.69s-1.42-7.1-4.25-9.55c-2.41-2.07-5.3-3.1-8.67-3.1h-.95Zm-3.49.2c-3.94.5-7.19,2.04-9.74,4.59-3.21,3.16-4.81,6.76-4.81,10.82,0,2.67.5,4.74,1.51,6.2.75,1.07,1.59,1.61,2.54,1.61,1.71,0,3.25-1.22,4.64-3.66,1.48-2.59,2.77-5.72,3.86-9.4,1.04-3.53,1.71-6.92,2-10.16Z"/>
    <path class="cls-2" d="m857.22,444.95c0,.23-.16.44-.46.63-.28.2-.63.83-1.05,1.9-1.22,3-2.47,5.66-3.74,8.01v24.54l.1,7.81c0,.26-.12.39-.37.39h-2.44c-.26,0-.39-.13-.39-.39l.1-7.81v-12.74c0-1.46.03-3.79.1-6.98-1.3,1.92-2.84,3.87-4.61,5.86-.28.33-.47.49-.59.49-.13,0-.27-.17-.42-.51-.31-.73-.74-1.4-1.29-2,4.77-5.24,8.3-11.09,10.6-17.55.49-1.35.76-2.47.81-3.34,1.45.42,2.48.79,3.1,1.1.37.18.56.38.56.61Zm30.88,40.45c0,.29-.14.44-.42.44l-7.03-.1h-18.51l-7.1.1c-.28,0-.42-.15-.42-.44v-2.17c0-.26.14-.39.42-.39l7.1.1h7.08v-12.43h-3.93l-6.62.1c-.29,0-.44-.13-.44-.39v-2.12c0-.26.15-.39.44-.39l6.62.1h3.93v-10.4h-5.35l-6.88.1c-.28,0-.42-.13-.42-.39v-2.17c0-.26.14-.39.42-.39l6.88.1h14.97l6.88-.1c.31,0,.46.13.46.39v2.17c0,.26-.16.39-.46.39l-6.88-.1h-6.54v10.4h4.79l6.59-.1c.28,0,.42.13.42.39v2.12c0,.26-.14.39-.42.39l-6.59-.1h-4.79v12.43h8.35l7.03-.1c.28,0,.42.13.42.39v2.17Zm-12.7-36.06c.15.13.22.24.22.34,0,.11-.1.29-.29.51l-1.05,1.25c-.29.36-.5.54-.61.54-.07,0-.16-.06-.27-.17-2.31-2.23-5.05-4.12-8.2-5.66-.18-.1-.27-.19-.27-.27,0-.1.12-.28.37-.54l1.05-1.15c.18-.21.33-.32.44-.32.06,0,.19.04.37.12,2.59,1.19,5.34,2.97,8.25,5.35Z"/>
    <path class="cls-2" d="m917.55,474.54c-.16-2.8-.26-5.31-.29-7.54-1.68.07-3.3.1-4.86.1-2.44,0-4.66-.08-6.64-.24-.33,0-.51-.2-.56-.61-.1-.65-.15-1.5-.15-2.54,2.46.29,5.18.44,8.15.44,1.38,0,2.69-.03,3.93-.1l-.05-7.45c-1.86.08-3.59.12-5.2.12-2.88,0-5.56-.12-8.03-.37-.26-.05-.42-.21-.46-.49-.13-1.01-.2-1.88-.2-2.61,2.72.34,5.73.51,9.03.51,1.53,0,3.15-.04,4.86-.12l-.05-5.25c-.03-1.35-.18-2.45-.44-3.3,1.77.16,3.09.38,3.96.66.37.13.56.37.56.73,0,.15-.04.29-.12.42-.34.54-.54,1.3-.59,2.29-.03.41-.09,1.86-.17,4.35,3.68-.28,7.75-.83,12.21-1.66.11-.02.2-.02.24-.02.18,0,.28.13.32.39.1.8.15,1.53.15,2.2,0,.33-.11.49-.34.49-4.15.7-8.34,1.19-12.57,1.46,0,3.37.02,5.83.07,7.4,3.6-.23,7.28-.71,11.04-1.44.1-.03.18-.05.24-.05.16,0,.27.1.32.29l.05,2.39c0,.29-.17.46-.51.51-3.65.67-7.32,1.12-11.04,1.34,0,2.29.11,5.05.34,8.28,5.01,1.4,9.46,3.55,13.35,6.45.18.15.27.31.27.49,0,.11-.02.24-.07.37-.24.78-.66,1.5-1.25,2.15-.15.18-.29.27-.44.27-.08,0-.19-.04-.32-.12-3.78-2.95-7.58-5.06-11.4-6.35.03,2.93-.8,5.01-2.49,6.25-1.43,1.04-3.59,1.56-6.47,1.56-3.06,0-5.36-.6-6.88-1.81-1.3-1.01-1.95-2.39-1.95-4.15s.92-3.32,2.76-4.49c1.68-1.07,3.82-1.61,6.45-1.61,1.95,0,3.7.14,5.25.42Zm.05,2.98c-1.9-.42-3.67-.63-5.3-.63-2.17,0-3.81.34-4.93,1.03-.91.55-1.37,1.26-1.37,2.12,0,2.07,1.86,3.1,5.59,3.1,2.52,0,4.22-.52,5.1-1.56.62-.76.93-1.86.93-3.27,0-.23,0-.49-.02-.78Z"/>
    <path class="cls-2" d="m953.56,450.59c1.5.16,2.82.51,3.96,1.05.29.15.44.33.44.56,0,.13-.07.43-.2.9-.26.78-.39,2.31-.39,4.59,0,3.91.24,7.69.71,11.35.39,3.17,1.13,5.72,2.22,7.64.94,1.69,1.97,2.54,3.08,2.54,1.92,0,3.7-2.61,5.35-7.84.44,1.07.98,1.9,1.64,2.49.31.28.46.58.46.9,0,.11-.02.24-.05.37-.83,2.38-1.92,4.28-3.27,5.71-1.32,1.42-2.72,2.12-4.2,2.12-2.18,0-4.07-1.46-5.66-4.37-1.32-2.44-2.25-5.53-2.78-9.28-.6-4.28-.9-8.93-.9-13.94,0-1.9-.13-3.51-.39-4.81Zm25.61,6.25c.89-.6,1.63-1.05,2.2-1.34.16-.08.31-.12.44-.12.11,0,.21.04.29.12,5.19,4.54,8.45,10.31,9.77,17.31v.12c0,.21-.12.39-.37.54-.72.47-1.48.85-2.29,1.15-.07.02-.13.02-.2.02-.26,0-.42-.15-.46-.44-1.29-7.05-4.41-12.83-9.38-17.36Z"/>
    <path class="cls-2" d="m1021.35,444.49c1.48.26,2.73.63,3.74,1.1.26.13.39.32.39.56,0,.2-.1.37-.29.54-.29.31-.59.78-.9,1.42-.38.8-.94,2.06-1.68,3.78,3.68-.36,7.19-.91,10.55-1.66.16-.03.28-.05.34-.05.11,0,.2.09.27.27.2,1.35.29,2.08.29,2.2,0,.33-.22.53-.66.61-3.71.65-7.77,1.2-12.18,1.64-1.68,3-3.38,5.48-5.1,7.45l.05.12c2-1.45,4.08-2.17,6.25-2.17,3.79,0,5.89,1.95,6.3,5.86,3.09-1.38,5.69-2.58,7.79-3.59,1.61-.78,2.88-1.64,3.81-2.56,1.17,1.03,1.99,1.99,2.44,2.91.11.21.17.39.17.54,0,.33-.22.53-.66.61-.81.13-1.73.4-2.76.81-1.21.5-3.1,1.27-5.69,2.29-2.05.81-3.69,1.48-4.91,2v8.4c0,.36-.18.56-.54.61-.67.13-1.39.2-2.17.2-.29,0-.44-.2-.44-.61,0-3.09.02-5.49.05-7.2-5.47,2.73-8.2,5.5-8.2,8.3,0,1.55.8,2.65,2.39,3.32,1.37.55,3.42.83,6.15.83,3.06,0,7.03-.33,11.91-.98.06-.02.11-.02.15-.02.2,0,.33.12.42.37.2.99.29,1.81.29,2.44,0,.39-.13.62-.39.68-3.68.47-7.8.71-12.38.71-7.7,0-11.55-2.38-11.55-7.15,0-2.31.93-4.39,2.78-6.25,1.72-1.74,4.48-3.54,8.28-5.4-.05-1.82-.44-3.09-1.17-3.81-.65-.62-1.66-.92-3.03-.9-2.39.05-5.13,1.4-8.2,4.05-.99.94-2.58,2.57-4.76,4.88-.15.18-.29.27-.42.27-.1,0-.2-.06-.32-.17-.65-.59-1.24-1.24-1.76-1.95-.08-.16-.12-.28-.12-.34,0-.1.07-.22.22-.37,4.87-4.23,8.73-8.86,11.6-13.89-1.73.1-3.53.15-5.42.15-1.21,0-2.5-.02-3.88-.07-.31,0-.49-.16-.54-.49-.16-.91-.26-1.74-.29-2.49,1.74.08,3.52.12,5.32.12,2.08,0,4.17-.06,6.27-.17.91-2.29,1.5-3.96,1.78-5,.28-.93.42-1.72.42-2.37v-.34Z"/>
    <path class="cls-2" d="m1062.05,475.2c2.07,0,3.81.76,5.22,2.29,1.22,1.32,1.83,2.87,1.83,4.66,0,2.05-.78,3.77-2.34,5.15-1.35,1.19-2.92,1.78-4.71,1.78-2.07,0-3.81-.77-5.22-2.29-1.22-1.32-1.83-2.86-1.83-4.64,0-2.07.78-3.79,2.34-5.18,1.35-1.19,2.92-1.78,4.71-1.78Zm0,2.49c-1.32,0-2.43.49-3.32,1.46-.77.86-1.15,1.86-1.15,3,0,1.3.5,2.4,1.49,3.3.85.76,1.84,1.15,2.98,1.15,1.33,0,2.44-.49,3.32-1.46.76-.85,1.15-1.84,1.15-2.98,0-1.33-.49-2.44-1.46-3.32-.85-.76-1.85-1.15-3-1.15Z"/>
  </g>
</svg>